<svg id="Layer_1" data-name="Layer 1" xmlns="http://www.w3.org/2000/svg" xmlns:xlink="http://www.w3.org/1999/xlink" viewBox="0 0 1280 1024"><defs><style>.cls-1{fill:none;}.cls-2{fill:#359337;}.cls-3{fill:#89c171;}.cls-4{fill:#11672e;}.cls-5{fill:#4b874b;}.cls-6{fill:#8a9371;}.cls-7{fill:#c2c2bf;}.cls-8{fill:#58674d;}.cls-9{fill:#858780;}.cls-10{fill:#232329;}.cls-11{fill:#27272e;}.cls-12{fill:#1d1d24;}.cls-13{fill:#212128;}.cls-14{fill:url(#New_Pattern_Swatch_4);}.cls-15{fill:#f5f5f5;}.cls-16{fill:url(#New_Pattern_Swatch_5);}.cls-17{fill:url(#New_Pattern_Swatch_8);}</style><pattern id="New_Pattern_Swatch_4" data-name="New Pattern Swatch 4" width="39.36" height="39.39" patternTransform="translate(167.36 12.22)" patternUnits="userSpaceOnUse" viewBox="0 0 39.36 39.39"><rect class="cls-1" width="39.36" height="39.39"/><rect class="cls-2" x="0.04" y="19.68" width="9.86" height="9.86"/><rect class="cls-3" x="9.82" y="19.68" width="9.86" height="9.86"/><rect class="cls-4" x="0.04" y="29.53" width="9.86" height="9.86"/><rect class="cls-5" x="9.82" y="29.53" width="9.86" height="9.86"/><polygon class="cls-2" points="29.5 29.57 29.5 19.71 39.36 19.71 39.36 29.57 29.5 29.57"/><polygon class="cls-3" points="29.5 39.36 29.5 29.5 39.36 29.5 39.36 39.36 29.5 39.36"/><polygon class="cls-4" points="19.64 29.57 19.64 19.71 29.5 19.71 29.5 29.57 19.64 29.57"/><polygon class="cls-5" points="19.64 39.36 19.64 29.5 29.5 29.5 29.5 39.36 19.64 39.36"/><polygon class="cls-2" points="9.79 9.89 19.64 9.89 19.64 19.75 9.79 19.75 9.79 9.89"/><polygon class="cls-3" points="0 9.89 9.86 9.89 9.86 19.75 0 19.75 0 9.89"/><polygon class="cls-4" points="9.79 0.04 19.64 0.04 19.64 9.89 9.79 9.89 9.79 0.04"/><polygon class="cls-5" points="0 0.04 9.86 0.04 9.86 9.89 0 9.89 0 0.04"/><polygon class="cls-2" points="29.46 9.86 39.32 9.86 39.32 19.71 29.46 19.71 29.46 9.86"/><polygon class="cls-3" points="19.68 9.86 29.54 9.86 29.54 19.71 19.68 19.71 19.68 9.86"/><polygon class="cls-4" points="29.46 0 39.32 0 39.32 9.86 29.46 9.86 29.46 0"/><polygon class="cls-5" points="19.68 0 29.54 0 29.54 9.86 19.68 9.86 19.68 0"/></pattern><pattern id="New_Pattern_Swatch_5" data-name="New Pattern Swatch 5" width="39.36" height="39.39" patternTransform="translate(167.36 12.22)" patternUnits="userSpaceOnUse" viewBox="0 0 39.36 39.39"><rect class="cls-1" width="39.36" height="39.39"/><rect class="cls-6" x="0.04" y="19.68" width="9.86" height="9.86"/><rect class="cls-7" x="9.82" y="19.68" width="9.86" height="9.86"/><rect class="cls-8" x="0.04" y="29.53" width="9.86" height="9.86"/><rect class="cls-9" x="9.82" y="29.53" width="9.86" height="9.86"/><polygon class="cls-6" points="29.5 29.57 29.5 19.71 39.36 19.71 39.36 29.57 29.5 29.57"/><polygon class="cls-9" points="29.5 39.36 29.5 29.5 39.36 29.5 39.36 39.36 29.5 39.36"/><polygon class="cls-8" points="19.64 29.57 19.64 19.71 29.5 19.71 29.5 29.57 19.64 29.57"/><polygon class="cls-7" points="19.64 39.36 19.64 29.5 29.5 29.5 29.5 39.36 19.64 39.36"/><polygon class="cls-6" points="9.79 9.89 19.64 9.89 19.64 19.75 9.79 19.75 9.79 9.89"/><polygon class="cls-7" points="0 9.89 9.86 9.89 9.86 19.75 0 19.75 0 9.89"/><polygon class="cls-8" points="9.79 0.04 19.64 0.04 19.64 9.89 9.79 9.89 9.79 0.04"/><polygon class="cls-9" points="0 0.04 9.86 0.04 9.86 9.89 0 9.89 0 0.04"/><polygon class="cls-9" points="29.46 9.86 39.32 9.86 39.32 19.71 29.46 19.71 29.46 9.86"/><polygon class="cls-7" points="19.68 9.86 29.54 9.86 29.54 19.71 19.68 19.71 19.68 9.86"/><polygon class="cls-8" points="29.46 0 39.32 0 39.32 9.86 29.46 9.86 29.46 0"/><polygon class="cls-9" points="19.68 0 29.54 0 29.54 9.86 19.68 9.86 19.68 0"/></pattern><pattern id="New_Pattern_Swatch_8" data-name="New Pattern Swatch 8" width="40" height="40" patternTransform="translate(22 11)" patternUnits="userSpaceOnUse" viewBox="0 0 40 40"><rect class="cls-1" width="40" height="40"/><rect class="cls-10" x="0.04" y="19.98" width="10.02" height="10.01"/><rect class="cls-11" x="9.98" y="19.98" width="10.02" height="10.01"/><rect class="cls-12" x="0.04" y="29.99" width="10.02" height="10.01"/><rect class="cls-13" x="9.98" y="29.99" width="10.02" height="10.01"/><polygon class="cls-10" points="29.98 30.03 29.98 20.02 40 20.02 40 30.03 29.98 30.03"/><polygon class="cls-13" points="29.98 39.96 29.98 29.95 40 29.95 40 39.96 29.98 39.96"/><polygon class="cls-12" points="19.96 30.03 19.96 20.02 29.98 20.02 29.98 30.03 19.96 30.03"/><polygon class="cls-11" points="19.96 39.96 19.96 29.95 29.98 29.95 29.98 39.96 19.96 39.96"/><polygon class="cls-10" points="9.95 10.05 19.96 10.05 19.96 20.05 9.95 20.05 9.95 10.05"/><polygon class="cls-11" points="0 10.05 10.02 10.05 10.02 20.05 0 20.05 0 10.05"/><polygon class="cls-12" points="9.95 0.04 19.96 0.04 19.96 10.05 9.95 10.05 9.95 0.04"/><polygon class="cls-13" points="0 0.04 10.02 0.04 10.02 10.05 0 10.05 0 0.04"/><polygon class="cls-13" points="29.95 10.01 39.96 10.01 39.96 20.02 29.95 20.02 29.95 10.01"/><polygon class="cls-11" points="20 10.01 30.02 10.01 30.02 20.02 20 20.02 20 10.01"/><polygon class="cls-12" points="29.95 0 39.96 0 39.96 10.01 29.95 10.01 29.95 0"/><polygon class="cls-13" points="20 0 30.02 0 30.02 10.01 20 10.01 20 0"/></pattern></defs><rect class="cls-14" x="-580.92" y="478.71" width="1239.03" height="114.91"/><rect class="cls-14" x="-797.59" y="628.09" width="1239.03" height="82.35"/><rect class="cls-14" x="-659.58" y="546.45" width="1239.03" height="82.62"/><rect class="cls-15" x="129.59" y="834.88" width="30.05" height="30.05"/><rect class="cls-15" x="159.43" y="834.88" width="30.05" height="30.05"/><rect class="cls-15" x="129.59" y="864.94" width="30.05" height="30.05"/><rect class="cls-15" x="159.43" y="864.94" width="30.05" height="30.05"/><rect class="cls-15" x="189.48" y="861.4" width="30.05" height="30.05"/><rect class="cls-15" x="219.31" y="861.4" width="30.05" height="30.05"/><rect class="cls-15" x="189.48" y="891.46" width="30.05" height="30.05"/><rect class="cls-15" x="219.31" y="891.46" width="30.05" height="30.05"/><rect class="cls-15" x="129.48" y="891.46" width="30.05" height="30.05"/><rect class="cls-15" x="159.31" y="891.46" width="30.05" height="30.05"/><rect class="cls-15" x="129.48" y="921.51" width="30.05" height="30.05"/><rect class="cls-15" x="159.31" y="921.51" width="30.05" height="30.05"/><rect class="cls-15" x="69.7" y="861.4" width="30.05" height="30.05"/><rect class="cls-15" x="99.54" y="861.4" width="30.05" height="30.05"/><rect class="cls-15" x="69.7" y="891.46" width="30.05" height="30.05"/><rect class="cls-15" x="99.54" y="891.46" width="30.05" height="30.05"/><rect class="cls-15" x="189.37" y="804.83" width="30.05" height="30.05"/><rect class="cls-15" x="219.2" y="804.83" width="30.05" height="30.05"/><rect class="cls-15" x="189.37" y="834.88" width="30.05" height="30.05"/><rect class="cls-15" x="219.2" y="834.88" width="30.05" height="30.05"/><rect class="cls-15" x="249.26" y="819.85" width="30.05" height="30.05"/><rect class="cls-15" x="279.09" y="819.85" width="30.05" height="30.05"/><rect class="cls-15" x="249.26" y="849.91" width="30.05" height="30.05"/><rect class="cls-15" x="279.09" y="849.91" width="30.05" height="30.05"/><rect class="cls-15" x="249.37" y="876.43" width="30.05" height="30.05"/><rect class="cls-15" x="279.2" y="876.43" width="30.05" height="30.05"/><rect class="cls-15" x="249.37" y="906.48" width="30.05" height="30.05"/><rect class="cls-15" x="279.2" y="906.48" width="30.05" height="30.05"/><rect class="cls-15" x="303.03" y="846.38" width="30.05" height="30.05"/><rect class="cls-15" x="332.86" y="846.38" width="30.05" height="30.05"/><rect class="cls-15" x="303.03" y="876.43" width="30.05" height="30.05"/><rect class="cls-15" x="332.86" y="876.43" width="30.05" height="30.05"/><rect class="cls-16" x="272.88" y="750.68" width="268.85" height="138.83"/><rect class="cls-17" x="-27.32" y="-35.33" width="1307.32" height="1080.33"/></svg>