<?xml version="1.0" encoding="utf-8"?>
<!-- Generator: Adobe Illustrator 25.1.0, SVG Export Plug-In . SVG Version: 6.00 Build 0)  -->
<svg version="1.1" xmlns="http://www.w3.org/2000/svg" xmlns:xlink="http://www.w3.org/1999/xlink" x="0px" y="0px"
	 viewBox="0 0 1280 1024" style="enable-background:new 0 0 1280 1024;" xml:space="preserve">
<style type="text/css">
	.st0{fill:none;}
	.st1{fill:#359337;}
	.st2{fill:#89C171;}
	.st3{fill:#11672E;}
	.st4{fill:#4B874B;}
	.st5{fill:#8A9371;}
	.st6{fill:#C2C2BF;}
	.st7{fill:#58674D;}
	.st8{fill:#858780;}
	.st9{fill:#934C15;}
	.st10{fill:#C25317;}
	.st11{fill:#66430F;}
	.st12{fill:#874513;}
	.st13{fill:#94691A;}
	.st14{fill:#C2894C;}
	.st15{fill:#675214;}
	.st16{fill:#886931;}
	.st17{fill:#232329;}
	.st18{fill:#27272E;}
	.st19{fill:#1D1D24;}
	.st20{fill:#212128;}
	.st21{fill:#1D1D1B;}
	.st22{fill:url(#SVGID_1_);}
	.st23{fill:url(#SVGID_2_);}
	.st24{fill:url(#SVGID_3_);}
	.st25{fill:url(#SVGID_4_);}
	.st26{fill:url(#SVGID_5_);}
	.st27{fill:#F5F5F5;}
	.st28{fill:url(#SVGID_6_);}
	.st29{fill:url(#SVGID_7_);}
	.st30{fill:url(#SVGID_8_);}
	.st31{fill:#616160;}
	.st32{fill:url(#SVGID_9_);}
	.st33{fill:url(#SVGID_10_);}
</style>
<pattern  x="-1555" y="-147" width="39.356" height="39.392" patternUnits="userSpaceOnUse" id="New_Pattern_Swatch_4" viewBox="0 -39.392 39.356 39.392" style="overflow:visible;">
	<g>
		<rect y="-39.392" class="st0" width="39.356" height="39.392"/>
		<g>
			<rect x="0.036" y="-19.714" class="st1" width="9.857" height="9.857"/>
			<rect x="9.821" y="-19.714" class="st2" width="9.857" height="9.857"/>
			<rect x="0.036" y="-9.857" class="st3" width="9.857" height="9.857"/>
			<rect x="9.821" y="-9.857" class="st4" width="9.857" height="9.857"/>
		</g>
		<g>
			
				<rect x="29.499" y="-19.678" transform="matrix(6.123234e-17 -1 1 6.123234e-17 49.1763 19.6778)" class="st1" width="9.857" height="9.857"/>
			
				<rect x="29.499" y="-9.893" transform="matrix(6.123234e-17 -1 1 6.123234e-17 39.3918 29.4623)" class="st2" width="9.857" height="9.857"/>
			
				<rect x="19.642" y="-19.678" transform="matrix(6.123234e-17 -1 1 6.123234e-17 39.3193 9.8208)" class="st3" width="9.857" height="9.857"/>
			
				<rect x="19.642" y="-9.893" transform="matrix(6.123234e-17 -1 1 6.123234e-17 29.5348 19.6054)" class="st4" width="9.857" height="9.857"/>
		</g>
		<g>
			
				<rect x="9.785" y="-29.499" transform="matrix(-1 3.267949e-07 -3.267949e-07 -1 29.4261 -49.1401)" class="st1" width="9.857" height="9.857"/>
			
				<rect x="0" y="-29.499" transform="matrix(-1 3.267949e-07 -3.267949e-07 -1 9.857 -49.1401)" class="st2" width="9.857" height="9.857"/>
			
				<rect x="9.785" y="-39.356" transform="matrix(-1 3.267949e-07 -3.267949e-07 -1 29.4261 -68.8541)" class="st3" width="9.857" height="9.857"/>
			
				<rect x="0" y="-39.356" transform="matrix(-1 3.267949e-07 -3.267949e-07 -1 9.857 -68.8541)" class="st4" width="9.857" height="9.857"/>
		</g>
		<g>
			
				<rect x="29.462" y="-29.535" transform="matrix(-1 3.267949e-07 -3.267949e-07 -1 68.7817 -49.2125)" class="st1" width="9.857" height="9.857"/>
			
				<rect x="19.678" y="-29.535" transform="matrix(-1 3.267949e-07 -3.267949e-07 -1 49.2125 -49.2125)" class="st2" width="9.857" height="9.857"/>
			
				<rect x="29.462" y="-39.392" transform="matrix(-1 3.267949e-07 -3.267949e-07 -1 68.7817 -68.9265)" class="st3" width="9.857" height="9.857"/>
			
				<rect x="19.678" y="-39.392" transform="matrix(-1 3.267949e-07 -3.267949e-07 -1 49.2125 -68.9265)" class="st4" width="9.857" height="9.857"/>
		</g>
	</g>
</pattern>
<pattern  x="-1555" y="-147" width="39.356" height="39.392" patternUnits="userSpaceOnUse" id="New_Pattern_Swatch_5" viewBox="0 -39.392 39.356 39.392" style="overflow:visible;">
	<g>
		<rect y="-39.392" class="st0" width="39.356" height="39.392"/>
		<g>
			<rect x="0.036" y="-19.714" class="st5" width="9.857" height="9.857"/>
			<rect x="9.821" y="-19.714" class="st6" width="9.857" height="9.857"/>
			<rect x="0.036" y="-9.857" class="st7" width="9.857" height="9.857"/>
			<rect x="9.821" y="-9.857" class="st8" width="9.857" height="9.857"/>
		</g>
		<g>
			
				<rect x="29.499" y="-19.678" transform="matrix(6.123234e-17 -1 1 6.123234e-17 49.1763 19.6778)" class="st5" width="9.857" height="9.857"/>
			
				<rect x="29.499" y="-9.893" transform="matrix(6.123234e-17 -1 1 6.123234e-17 39.3918 29.4623)" class="st8" width="9.857" height="9.857"/>
			
				<rect x="19.642" y="-19.678" transform="matrix(6.123234e-17 -1 1 6.123234e-17 39.3193 9.8208)" class="st7" width="9.857" height="9.857"/>
			
				<rect x="19.642" y="-9.893" transform="matrix(6.123234e-17 -1 1 6.123234e-17 29.5348 19.6054)" class="st6" width="9.857" height="9.857"/>
		</g>
		<g>
			
				<rect x="9.785" y="-29.499" transform="matrix(-1 3.267949e-07 -3.267949e-07 -1 29.4261 -49.1401)" class="st5" width="9.857" height="9.857"/>
			
				<rect x="0" y="-29.499" transform="matrix(-1 3.267949e-07 -3.267949e-07 -1 9.857 -49.1401)" class="st6" width="9.857" height="9.857"/>
			
				<rect x="9.785" y="-39.356" transform="matrix(-1 3.267949e-07 -3.267949e-07 -1 29.4261 -68.8541)" class="st7" width="9.857" height="9.857"/>
			
				<rect x="0" y="-39.356" transform="matrix(-1 3.267949e-07 -3.267949e-07 -1 9.857 -68.8541)" class="st8" width="9.857" height="9.857"/>
		</g>
		<g>
			
				<rect x="29.462" y="-29.535" transform="matrix(-1 3.267949e-07 -3.267949e-07 -1 68.7817 -49.2125)" class="st8" width="9.857" height="9.857"/>
			
				<rect x="19.678" y="-29.535" transform="matrix(-1 3.267949e-07 -3.267949e-07 -1 49.2125 -49.2125)" class="st6" width="9.857" height="9.857"/>
			
				<rect x="29.462" y="-39.392" transform="matrix(-1 3.267949e-07 -3.267949e-07 -1 68.7817 -68.9265)" class="st7" width="9.857" height="9.857"/>
			
				<rect x="19.678" y="-39.392" transform="matrix(-1 3.267949e-07 -3.267949e-07 -1 49.2125 -68.9265)" class="st8" width="9.857" height="9.857"/>
		</g>
	</g>
</pattern>
<pattern  x="-1555" y="-147" width="39.356" height="39.392" patternUnits="userSpaceOnUse" id="New_Pattern_Swatch_6" viewBox="0 -39.392 39.356 39.392" style="overflow:visible;">
	<g>
		<rect y="-39.392" class="st0" width="39.356" height="39.392"/>
		<g>
			<rect x="0.036" y="-19.714" class="st9" width="9.857" height="9.857"/>
			<rect x="9.821" y="-19.714" class="st10" width="9.857" height="9.857"/>
			<rect x="0.036" y="-9.857" class="st11" width="9.857" height="9.857"/>
			<rect x="9.821" y="-9.857" class="st12" width="9.857" height="9.857"/>
		</g>
		<g>
			
				<rect x="29.499" y="-19.678" transform="matrix(6.123234e-17 -1 1 6.123234e-17 49.1763 19.6778)" class="st9" width="9.857" height="9.857"/>
			
				<rect x="29.499" y="-9.893" transform="matrix(6.123234e-17 -1 1 6.123234e-17 39.3918 29.4623)" class="st12" width="9.857" height="9.857"/>
			
				<rect x="19.642" y="-19.678" transform="matrix(6.123234e-17 -1 1 6.123234e-17 39.3193 9.8208)" class="st11" width="9.857" height="9.857"/>
			
				<rect x="19.642" y="-9.893" transform="matrix(6.123234e-17 -1 1 6.123234e-17 29.5348 19.6054)" class="st10" width="9.857" height="9.857"/>
		</g>
		<g>
			
				<rect x="9.785" y="-29.499" transform="matrix(-1 3.267949e-07 -3.267949e-07 -1 29.4261 -49.1401)" class="st9" width="9.857" height="9.857"/>
			
				<rect x="0" y="-29.499" transform="matrix(-1 3.267949e-07 -3.267949e-07 -1 9.857 -49.1401)" class="st10" width="9.857" height="9.857"/>
			
				<rect x="9.785" y="-39.356" transform="matrix(-1 3.267949e-07 -3.267949e-07 -1 29.4261 -68.8541)" class="st11" width="9.857" height="9.857"/>
			
				<rect x="0" y="-39.356" transform="matrix(-1 3.267949e-07 -3.267949e-07 -1 9.857 -68.8541)" class="st12" width="9.857" height="9.857"/>
		</g>
		<g>
			
				<rect x="29.462" y="-29.535" transform="matrix(-1 3.267949e-07 -3.267949e-07 -1 68.7817 -49.2125)" class="st12" width="9.857" height="9.857"/>
			
				<rect x="19.678" y="-29.535" transform="matrix(-1 3.267949e-07 -3.267949e-07 -1 49.2125 -49.2125)" class="st10" width="9.857" height="9.857"/>
			
				<rect x="29.462" y="-39.392" transform="matrix(-1 3.267949e-07 -3.267949e-07 -1 68.7817 -68.9265)" class="st11" width="9.857" height="9.857"/>
			
				<rect x="19.678" y="-39.392" transform="matrix(-1 3.267949e-07 -3.267949e-07 -1 49.2125 -68.9265)" class="st12" width="9.857" height="9.857"/>
		</g>
	</g>
</pattern>
<pattern  x="-1555" y="-147" width="39.356" height="39.392" patternUnits="userSpaceOnUse" id="New_Pattern_Swatch_7" viewBox="0 -39.392 39.356 39.392" style="overflow:visible;">
	<g>
		<rect y="-39.392" class="st0" width="39.356" height="39.392"/>
		<g>
			<rect x="0.036" y="-19.714" class="st13" width="9.857" height="9.857"/>
			<rect x="9.821" y="-19.714" class="st14" width="9.857" height="9.857"/>
			<rect x="0.036" y="-9.857" class="st15" width="9.857" height="9.857"/>
			<rect x="9.821" y="-9.857" class="st16" width="9.857" height="9.857"/>
		</g>
		<g>
			
				<rect x="29.499" y="-19.678" transform="matrix(6.123234e-17 -1 1 6.123234e-17 49.1763 19.6778)" class="st13" width="9.857" height="9.857"/>
			
				<rect x="29.499" y="-9.893" transform="matrix(6.123234e-17 -1 1 6.123234e-17 39.3918 29.4623)" class="st16" width="9.857" height="9.857"/>
			
				<rect x="19.642" y="-19.678" transform="matrix(6.123234e-17 -1 1 6.123234e-17 39.3193 9.8208)" class="st15" width="9.857" height="9.857"/>
			
				<rect x="19.642" y="-9.893" transform="matrix(6.123234e-17 -1 1 6.123234e-17 29.5348 19.6054)" class="st14" width="9.857" height="9.857"/>
		</g>
		<g>
			
				<rect x="9.785" y="-29.499" transform="matrix(-1 3.267949e-07 -3.267949e-07 -1 29.4261 -49.1401)" class="st13" width="9.857" height="9.857"/>
			
				<rect x="0" y="-29.499" transform="matrix(-1 3.267949e-07 -3.267949e-07 -1 9.857 -49.1401)" class="st14" width="9.857" height="9.857"/>
			
				<rect x="9.785" y="-39.356" transform="matrix(-1 3.267949e-07 -3.267949e-07 -1 29.4261 -68.8541)" class="st15" width="9.857" height="9.857"/>
			
				<rect x="0" y="-39.356" transform="matrix(-1 3.267949e-07 -3.267949e-07 -1 9.857 -68.8541)" class="st16" width="9.857" height="9.857"/>
		</g>
		<g>
			
				<rect x="29.462" y="-29.535" transform="matrix(-1 3.267949e-07 -3.267949e-07 -1 68.7817 -49.2125)" class="st16" width="9.857" height="9.857"/>
			
				<rect x="19.678" y="-29.535" transform="matrix(-1 3.267949e-07 -3.267949e-07 -1 49.2125 -49.2125)" class="st14" width="9.857" height="9.857"/>
			
				<rect x="29.462" y="-39.392" transform="matrix(-1 3.267949e-07 -3.267949e-07 -1 68.7817 -68.9265)" class="st15" width="9.857" height="9.857"/>
			
				<rect x="19.678" y="-39.392" transform="matrix(-1 3.267949e-07 -3.267949e-07 -1 49.2125 -68.9265)" class="st16" width="9.857" height="9.857"/>
		</g>
	</g>
</pattern>
<pattern  x="-1555" y="-147" width="40" height="40" patternUnits="userSpaceOnUse" id="New_Pattern_Swatch_8" viewBox="0 -40 40 40" style="overflow:visible;">
	<g>
		<rect y="-40" class="st0" width="40" height="40"/>
		<g>
			<rect x="0.037" y="-20.018" class="st17" width="10.018" height="10.009"/>
			<rect x="9.982" y="-20.018" class="st18" width="10.018" height="10.009"/>
			<rect x="0.037" y="-10.009" class="st19" width="10.018" height="10.009"/>
			<rect x="9.982" y="-10.009" class="st20" width="10.018" height="10.009"/>
		</g>
		<g>
			
				<rect x="29.986" y="-19.986" transform="matrix(6.123234e-17 -1 1 6.123234e-17 49.9678 20.0138)" class="st17" width="10.009" height="10.018"/>
			
				<rect x="29.986" y="-10.051" transform="matrix(6.123234e-17 -1 1 6.123234e-17 40.0322 29.9494)" class="st20" width="10.009" height="10.018"/>
			
				<rect x="19.968" y="-19.986" transform="matrix(6.123234e-17 -1 1 6.123234e-17 39.9494 9.9954)" class="st19" width="10.009" height="10.018"/>
			
				<rect x="19.968" y="-10.051" transform="matrix(6.123234e-17 -1 1 6.123234e-17 30.0138 19.931)" class="st18" width="10.009" height="10.018"/>
		</g>
		<g>
			
				<rect x="9.945" y="-29.954" transform="matrix(-1 3.264945e-07 -3.264945e-07 -1 29.908 -49.8989)" class="st17" width="10.018" height="10.009"/>
			
				<rect x="0" y="-29.954" transform="matrix(-1 3.264945e-07 -3.264945e-07 -1 10.0184 -49.8989)" class="st18" width="10.018" height="10.009"/>
			
				<rect x="9.945" y="-39.963" transform="matrix(-1 3.264945e-07 -3.264945e-07 -1 29.908 -69.9173)" class="st19" width="10.018" height="10.009"/>
			
				<rect x="0" y="-39.963" transform="matrix(-1 3.264946e-07 -3.264946e-07 -1 10.0184 -69.9173)" class="st20" width="10.018" height="10.009"/>
		</g>
		<g>
			
				<rect x="29.945" y="-29.991" transform="matrix(-1 3.264945e-07 -3.264945e-07 -1 69.908 -49.9724)" class="st20" width="10.018" height="10.009"/>
			
				<rect x="20" y="-29.991" transform="matrix(-1 3.264945e-07 -3.264945e-07 -1 50.0184 -49.9724)" class="st18" width="10.018" height="10.009"/>
			
				<rect x="29.945" y="-40" transform="matrix(-1 3.264946e-07 -3.264946e-07 -1 69.908 -69.9908)" class="st19" width="10.018" height="10.009"/>
			
				<rect x="20" y="-40" transform="matrix(-1 3.264945e-07 -3.264945e-07 -1 50.0184 -69.9908)" class="st20" width="10.018" height="10.009"/>
		</g>
	</g>
</pattern>
<g id="Layer_1">
	<rect x="-1557.424" y="-35.1" class="st21" width="1304.294" height="913.296"/>
	<pattern  id="SVGID_1_" xlink:href="#New_Pattern_Swatch_4" patternTransform="matrix(1 0 0 1 167.3638 12.2165)">
	</pattern>
	<rect x="-1389.92" y="-120.139" class="st22" width="57.81" height="436.157"/>
	<g>
		<pattern  id="SVGID_2_" xlink:href="#New_Pattern_Swatch_4" patternTransform="matrix(1 0 0 1 167.3638 12.2165)">
		</pattern>
		<rect x="-1417.108" y="652.677" class="st23" width="1239.029" height="303.323"/>
		<pattern  id="SVGID_3_" xlink:href="#New_Pattern_Swatch_4" patternTransform="matrix(1 0 0 1 167.3638 12.2165)">
		</pattern>
		<rect x="-580.922" y="478.708" class="st24" width="1239.029" height="114.913"/>
		<pattern  id="SVGID_4_" xlink:href="#New_Pattern_Swatch_4" patternTransform="matrix(1 0 0 1 167.3638 12.2165)">
		</pattern>
		<rect x="-797.593" y="628.092" class="st25" width="1239.029" height="82.354"/>
		<pattern  id="SVGID_5_" xlink:href="#New_Pattern_Swatch_4" patternTransform="matrix(1 0 0 1 167.3638 12.2165)">
		</pattern>
		<rect x="-659.575" y="546.454" class="st26" width="1239.029" height="82.615"/>
	</g>
	<g>
		<g>
			<rect x="129.592" y="834.881" class="st27" width="30.054" height="30.054"/>
			<rect x="159.425" y="834.881" class="st27" width="30.054" height="30.054"/>
			<rect x="129.592" y="864.935" class="st27" width="30.054" height="30.054"/>
			<rect x="159.425" y="864.935" class="st27" width="30.054" height="30.054"/>
		</g>
		<g>
			<rect x="189.479" y="861.403" class="st27" width="30.054" height="30.054"/>
			<rect x="219.313" y="861.403" class="st27" width="30.054" height="30.054"/>
			<rect x="189.479" y="891.457" class="st27" width="30.054" height="30.054"/>
			<rect x="219.313" y="891.457" class="st27" width="30.054" height="30.054"/>
		</g>
		<g>
			<rect x="129.482" y="891.457" class="st27" width="30.054" height="30.054"/>
			<rect x="159.315" y="891.457" class="st27" width="30.054" height="30.054"/>
			<rect x="129.482" y="921.511" class="st27" width="30.054" height="30.054"/>
			<rect x="159.315" y="921.511" class="st27" width="30.054" height="30.054"/>
		</g>
		<g>
			<rect x="69.705" y="861.403" class="st27" width="30.054" height="30.054"/>
			<rect x="99.538" y="861.403" class="st27" width="30.054" height="30.054"/>
			<rect x="69.705" y="891.457" class="st27" width="30.054" height="30.054"/>
			<rect x="99.538" y="891.457" class="st27" width="30.054" height="30.054"/>
		</g>
		<g>
			<rect x="189.369" y="804.827" class="st27" width="30.054" height="30.054"/>
			<rect x="219.202" y="804.827" class="st27" width="30.054" height="30.054"/>
			<rect x="189.369" y="834.881" class="st27" width="30.054" height="30.054"/>
			<rect x="219.202" y="834.881" class="st27" width="30.054" height="30.054"/>
		</g>
		<g>
			<rect x="249.256" y="819.854" class="st27" width="30.054" height="30.054"/>
			<rect x="279.089" y="819.854" class="st27" width="30.054" height="30.054"/>
			<rect x="249.256" y="849.908" class="st27" width="30.054" height="30.054"/>
			<rect x="279.089" y="849.908" class="st27" width="30.054" height="30.054"/>
		</g>
		<g>
			<rect x="249.367" y="876.43" class="st27" width="30.054" height="30.054"/>
			<rect x="279.2" y="876.43" class="st27" width="30.054" height="30.054"/>
			<rect x="249.367" y="906.484" class="st27" width="30.054" height="30.054"/>
			<rect x="279.2" y="906.484" class="st27" width="30.054" height="30.054"/>
		</g>
		<g>
			<rect x="303.032" y="846.376" class="st27" width="30.054" height="30.054"/>
			<rect x="332.865" y="846.376" class="st27" width="30.054" height="30.054"/>
			<rect x="303.032" y="876.43" class="st27" width="30.054" height="30.054"/>
			<rect x="332.865" y="876.43" class="st27" width="30.054" height="30.054"/>
		</g>
	</g>
	<pattern  id="SVGID_6_" xlink:href="#New_Pattern_Swatch_5" patternTransform="matrix(1 0 0 1 167.3638 12.2165)">
	</pattern>
	<rect x="272.882" y="750.677" class="st28" width="268.853" height="138.829"/>
	<pattern  id="SVGID_7_" xlink:href="#New_Pattern_Swatch_5" patternTransform="matrix(1 0 0 1 167.3638 12.2165)">
	</pattern>
	<rect x="-515.957" y="-66.539" class="st29" width="71.144" height="463.206"/>
	<rect x="-538.308" y="238.5" class="st21" width="95.018" height="63.908"/>
	<rect x="-686.303" y="243.167" class="st21" width="63.908" height="63.908"/>
	<g>
		<pattern  id="SVGID_8_" xlink:href="#New_Pattern_Swatch_6" patternTransform="matrix(1 0 0 1 167.3638 12.2165)">
		</pattern>
		<polygon class="st30" points="-1557.424,-213.779 -1303.315,-213.779 -1303.315,878.196 -1557.424,878.196 		"/>
		
			<rect x="-1358.061" y="169.217" transform="matrix(-1.836970e-16 1 -1 -1.836970e-16 -1124.9365 1527.2787)" class="st21" width="63.908" height="63.908"/>
		
			<rect x="-1229.111" y="520.889" transform="matrix(-1.836970e-16 1 -1 -1.836970e-16 -515.111 1878.9504)" class="st21" width="64.161" height="322.061"/>
		
			<rect x="-1364.154" y="-73.611" transform="matrix(-1.836970e-16 1 -1 -1.836970e-16 -1373.8575 1290.5425)" class="st21" width="63.908" height="63.908"/>
		
			<rect x="-1416.675" y="650.06" transform="matrix(-1.836970e-16 1 -1 -1.836970e-16 -702.7076 2066.7356)" class="st21" width="63.908" height="63.908"/>
	</g>
	<rect x="-876.989" y="-869.837" class="st31" width="1359.514" height="287.769"/>
	<pattern  id="SVGID_9_" xlink:href="#New_Pattern_Swatch_7" patternTransform="matrix(1 0 0 1 167.3638 12.2165)">
	</pattern>
	<rect x="-1553.145" y="-228" class="st32" width="1304.294" height="359"/>
	
		<rect x="-991.654" y="82.215" transform="matrix(-1 -3.267949e-07 3.267949e-07 -1 -1919.4001 228.3375)" class="st21" width="63.908" height="63.908"/>
	
		<rect x="-932.654" y="82.215" transform="matrix(-1 -3.267949e-07 3.267949e-07 -1 -1801.4001 228.3375)" class="st21" width="63.908" height="63.908"/>
	
		<rect x="-932.654" y="22.215" transform="matrix(-1 -3.267949e-07 3.267949e-07 -1 -1801.4 108.3375)" class="st21" width="63.908" height="63.908"/>
	
		<rect x="-1421.874" y="170.089" transform="matrix(-1 -3.267949e-07 3.267949e-07 -1 -2779.8403 404.0858)" class="st21" width="63.908" height="63.908"/>
	
		<rect x="-1480.583" y="650.06" transform="matrix(-1 -3.267949e-07 3.267949e-07 -1 -2897.2588 1364.0276)" class="st21" width="63.908" height="63.908"/>
	
		<rect x="-1366.537" y="587.577" transform="matrix(-1 -1.418618e-07 1.418618e-07 -1 -2589.137 1237.636)" class="st21" width="143.937" height="62.483"/>
	
		<rect x="-1421.874" y="587.577" transform="matrix(-1 -3.267949e-07 3.267949e-07 -1 -2779.8408 1239.0614)" class="st21" width="63.908" height="63.908"/>
	<rect x="9.842" y="1188.861" class="st31" width="1228.851" height="888.723"/>
	<pattern  id="SVGID_10_" xlink:href="#New_Pattern_Swatch_8" patternTransform="matrix(1 0 0 1 22 11)">
	</pattern>
	<rect x="-27.32" y="-35.333" class="st33" width="1307.32" height="1080.333"/>
</g>
<g id="Layer_2">
	
		<image style="overflow:visible;" width="1999" height="1125" xlink:href="MINECRAFT_LOGO.png"  transform="matrix(0.5758 0 0 0.5758 -1490.5388 -98)">
	</image>
	<g>
		<path class="st6" d="M-1163.712,578.103c0.17,0.683,0.256,1.535,0.256,2.559c0,0.981-0.086,1.834-0.256,2.559h-5.118
			c-0.171-0.725-0.256-1.577-0.256-2.559c0-1.023,0.085-1.876,0.256-2.559c-0.171-0.725-0.256-1.578-0.256-2.56
			c0-1.023,0.085-1.876,0.256-2.559h-10.235c0.17,0.683,0.256,1.535,0.256,2.559c0,0.981-0.086,1.835-0.256,2.56
			c0.17,0.683,0.256,1.535,0.256,2.559c0,0.981-0.086,1.834-0.256,2.559h-5.118c-0.171-0.725-0.256-1.577-0.256-2.559
			c0-1.023,0.085-1.876,0.256-2.559c-0.171-0.725-0.256-1.578-0.256-2.56c0-1.023,0.085-1.876,0.256-2.559h1.919
			c-0.171-0.725-0.256-1.577-0.256-2.559c0-1.023,0.085-1.876,0.256-2.559c-0.171-0.725-0.256-1.577-0.256-2.56
			c0-1.023,0.085-1.876,0.256-2.559h1.279c-0.171-0.725-0.256-1.577-0.256-2.559c0-1.023,0.085-1.876,0.256-2.559h1.919
			c-0.171-0.725-0.256-1.577-0.256-2.559c0-1.024,0.085-1.877,0.256-2.56h1.28c-0.171-0.725-0.256-1.577-0.256-2.559
			c0-1.023,0.085-1.876,0.256-2.559h7.676c0.17,0.683,0.256,1.535,0.256,2.559c0,0.981-0.086,1.834-0.256,2.559h1.279
			c0.17,0.683,0.256,1.535,0.256,2.56c0,0.981-0.086,1.834-0.256,2.559h1.919c0.17,0.683,0.256,1.535,0.256,2.559
			c0,0.981-0.086,1.834-0.256,2.559h1.28c0.17,0.683,0.256,1.535,0.256,2.559c0,0.982-0.086,1.835-0.256,2.56
			c0.17,0.683,0.256,1.535,0.256,2.559c0,0.981-0.086,1.834-0.256,2.559h1.919c0.17,0.683,0.256,1.535,0.256,2.559
			C-1163.456,576.524-1163.542,577.378-1163.712,578.103z M-1171.004,565.308c0-1.023,0.085-1.876,0.256-2.559h-1.279
			c-0.171-0.725-0.256-1.577-0.256-2.559c0-1.023,0.085-1.876,0.256-2.559h-3.838c0.17,0.683,0.256,1.535,0.256,2.559
			c0,0.981-0.086,1.834-0.256,2.559h-1.279c0.17,0.683,0.256,1.535,0.256,2.559c0,0.982-0.086,1.835-0.256,2.56h6.397
			C-1170.919,567.143-1171.004,566.29-1171.004,565.308z"/>
		<path class="st6" d="M-1137.868,565.308c0,0.982-0.086,1.835-0.256,2.56h-5.118c-0.171-0.725-0.256-1.577-0.256-2.56
			c0-1.023,0.085-1.876,0.256-2.559h-4.478c0.17,0.683,0.256,1.535,0.256,2.559c0,0.982-0.086,1.835-0.256,2.56h-1.919
			c0.17,0.683,0.256,1.535,0.256,2.559c0,0.981-0.086,1.834-0.256,2.559c0.17,0.683,0.256,1.535,0.256,2.559
			c0,0.981-0.086,1.835-0.256,2.56h3.838c0.17,0.683,0.256,1.535,0.256,2.559c0,0.981-0.086,1.834-0.256,2.559h-12.794
			c-0.171-0.725-0.256-1.577-0.256-2.559c0-1.023,0.085-1.876,0.256-2.559h3.838c-0.171-0.725-0.256-1.578-0.256-2.56
			c0-1.023,0.085-1.876,0.256-2.559c-0.171-0.725-0.256-1.577-0.256-2.559c0-1.023,0.085-1.876,0.256-2.559
			c-0.171-0.725-0.256-1.577-0.256-2.56c0-1.023,0.085-1.876,0.256-2.559h-3.838c-0.171-0.725-0.256-1.577-0.256-2.559
			c0-1.023,0.085-1.876,0.256-2.559h6.397c0.17,0.683,0.256,1.535,0.256,2.559c0,0.981-0.086,1.834-0.256,2.559h2.559
			c-0.171-0.725-0.256-1.577-0.256-2.559c0-1.023,0.085-1.876,0.256-2.559h9.596c0.17,0.683,0.256,1.535,0.256,2.559
			c0,0.981-0.086,1.834-0.256,2.559h1.919C-1137.954,563.432-1137.868,564.284-1137.868,565.308z"/>
		<path class="st6" d="M-1112.537,567.867c0.17,0.683,0.256,1.535,0.256,2.559c0,0.981-0.086,1.834-0.256,2.559h-13.434
			c0.17,0.683,0.256,1.535,0.256,2.559c0,0.981-0.086,1.835-0.256,2.56h10.875c0.17,0.683,0.256,1.535,0.256,2.559
			c0,0.981-0.086,1.834-0.256,2.559h-12.794c-0.171-0.725-0.256-1.577-0.256-2.559c0-1.023,0.085-1.876,0.256-2.559h-3.198
			c-0.171-0.725-0.256-1.578-0.256-2.56c0-1.023,0.085-1.876,0.256-2.559h-1.919c-0.171-0.725-0.256-1.577-0.256-2.559
			c0-1.023,0.085-1.876,0.256-2.559h1.919c-0.171-0.725-0.256-1.577-0.256-2.56c0-1.023,0.085-1.876,0.256-2.559h3.198
			c-0.171-0.725-0.256-1.577-0.256-2.559c0-1.023,0.085-1.876,0.256-2.559h12.794c0.17,0.683,0.256,1.535,0.256,2.559
			c0,0.981-0.086,1.834-0.256,2.559h2.559c0.17,0.683,0.256,1.535,0.256,2.559C-1112.281,566.29-1112.367,567.143-1112.537,567.867z
			 M-1117.91,565.308c0-1.023,0.085-1.876,0.256-2.559h-8.316c0.17,0.683,0.256,1.535,0.256,2.559c0,0.982-0.086,1.835-0.256,2.56
			h8.316C-1117.825,567.143-1117.91,566.29-1117.91,565.308z"/>
		<path class="st6" d="M-1061.361,562.749h-1.919c0.17,0.683,0.256,1.535,0.256,2.559c0,0.982-0.086,1.835-0.256,2.56h-1.919
			c0.17,0.683,0.256,1.535,0.256,2.559c0,0.981-0.086,1.834-0.256,2.559h-1.279c0.17,0.683,0.256,1.535,0.256,2.559
			c0,0.981-0.086,1.835-0.256,2.56h-1.919c0.17,0.683,0.256,1.535,0.256,2.559c0,0.981-0.086,1.834-0.256,2.559h-1.279
			c0.17,0.682,0.256,1.535,0.256,2.559c0,0.98-0.086,1.833-0.256,2.559h-2.559c0.17,0.682,0.256,1.536,0.256,2.56
			c0,0.98-0.086,1.833-0.256,2.559h-7.676c-0.171-0.726-0.256-1.578-0.256-2.559c0-1.023,0.085-1.878,0.256-2.56h5.118
			c-0.171-0.726-0.256-1.578-0.256-2.559c0-1.023,0.085-1.877,0.256-2.559c-0.171-0.725-0.256-1.577-0.256-2.559
			c0-1.023,0.085-1.876,0.256-2.559h-2.559c-0.171-0.725-0.256-1.578-0.256-2.56c0-1.023,0.085-1.876,0.256-2.559h-1.279
			c-0.171-0.725-0.256-1.577-0.256-2.559c0-1.023,0.085-1.876,0.256-2.559h-1.919c-0.171-0.725-0.256-1.577-0.256-2.56
			c0-1.023,0.085-1.876,0.256-2.559h-1.919c-0.171-0.725-0.256-1.577-0.256-2.559c0-1.023,0.085-1.876,0.256-2.559h5.118
			c0.17,0.683,0.256,1.535,0.256,2.559c0,0.981-0.086,1.834-0.256,2.559h1.919c0.17,0.683,0.256,1.535,0.256,2.559
			c0,0.982-0.086,1.835-0.256,2.56h1.919c0.17,0.683,0.256,1.535,0.256,2.559c0,0.981-0.086,1.834-0.256,2.559
			c0.17,0.683,0.256,1.535,0.256,2.559c0,0.981-0.086,1.835-0.256,2.56h1.919c-0.171-0.725-0.256-1.578-0.256-2.56
			c0-1.023,0.085-1.876,0.256-2.559h1.279c-0.171-0.725-0.256-1.577-0.256-2.559c0-1.023,0.085-1.876,0.256-2.559h1.919
			c-0.171-0.725-0.256-1.577-0.256-2.56c0-1.023,0.085-1.876,0.256-2.559h1.919c-0.171-0.725-0.256-1.577-0.256-2.559
			c0-1.023,0.085-1.876,0.256-2.559h5.118c0.17,0.683,0.256,1.535,0.256,2.559C-1061.105,561.172-1061.191,562.024-1061.361,562.749
			z"/>
		<path class="st6" d="M-1035.773,572.984h-1.919c0.17,0.683,0.256,1.535,0.256,2.559c0,0.981-0.086,1.835-0.256,2.56h-3.199
			c0.17,0.683,0.256,1.535,0.256,2.559c0,0.981-0.086,1.834-0.256,2.559h-10.235c-0.171-0.725-0.256-1.577-0.256-2.559
			c0-1.023,0.085-1.876,0.256-2.559h-3.198c-0.171-0.725-0.256-1.578-0.256-2.56c0-1.023,0.085-1.876,0.256-2.559h-1.919
			c-0.171-0.725-0.256-1.577-0.256-2.559c0-1.023,0.085-1.876,0.256-2.559h1.919c-0.171-0.725-0.256-1.577-0.256-2.56
			c0-1.023,0.085-1.876,0.256-2.559h3.198c-0.171-0.725-0.256-1.577-0.256-2.559c0-1.023,0.085-1.876,0.256-2.559h10.235
			c0.17,0.683,0.256,1.535,0.256,2.559c0,0.981-0.086,1.834-0.256,2.559h3.199c0.17,0.683,0.256,1.535,0.256,2.559
			c0,0.982-0.086,1.835-0.256,2.56h1.919c0.17,0.683,0.256,1.535,0.256,2.559C-1035.518,571.407-1035.604,572.26-1035.773,572.984z
			 M-1040.891,572.984c-0.171-0.725-0.256-1.577-0.256-2.559c0-1.023,0.085-1.876,0.256-2.559h-1.919
			c-0.171-0.725-0.256-1.577-0.256-2.56c0-1.023,0.085-1.876,0.256-2.559h-6.397c0.17,0.683,0.256,1.535,0.256,2.559
			c0,0.982-0.086,1.835-0.256,2.56h-1.919c0.17,0.683,0.256,1.535,0.256,2.559c0,0.981-0.086,1.834-0.256,2.559h1.919
			c0.17,0.683,0.256,1.535,0.256,2.559c0,0.981-0.086,1.835-0.256,2.56h6.397c-0.171-0.725-0.256-1.578-0.256-2.56
			c0-1.023,0.085-1.876,0.256-2.559H-1040.891z"/>
		<path class="st6" d="M-1023.619,578.103h6.397c0.17,0.683,0.256,1.535,0.256,2.559c0,0.981-0.086,1.834-0.256,2.559h-10.235
			c-0.171-0.725-0.256-1.577-0.256-2.559c0-1.023,0.085-1.876,0.256-2.559h-3.199c-0.171-0.725-0.256-1.578-0.256-2.56
			c0-1.023,0.085-1.876,0.256-2.559c-0.171-0.725-0.256-1.577-0.256-2.559c0-1.023,0.085-1.876,0.256-2.559
			c-0.171-0.725-0.256-1.577-0.256-2.56c0-1.023,0.085-1.876,0.256-2.559c-0.171-0.725-0.256-1.577-0.256-2.559
			c0-1.023,0.085-1.876,0.256-2.559h5.118c0.17,0.683,0.256,1.535,0.256,2.559c0,0.981-0.086,1.834-0.256,2.559
			c0.17,0.683,0.256,1.535,0.256,2.559c0,0.982-0.086,1.835-0.256,2.56c0.17,0.683,0.256,1.535,0.256,2.559
			c0,0.981-0.086,1.834-0.256,2.559h1.919c0.17,0.683,0.256,1.535,0.256,2.559C-1023.363,576.524-1023.449,577.378-1023.619,578.103
			z M-1009.93,565.308c0,0.982-0.086,1.835-0.256,2.56c0.17,0.683,0.256,1.535,0.256,2.559c0,0.981-0.086,1.834-0.256,2.559
			c0.17,0.683,0.256,1.535,0.256,2.559c0,0.981-0.086,1.835-0.256,2.56c0.17,0.683,0.256,1.535,0.256,2.559
			c0,0.981-0.086,1.834-0.256,2.559h-5.118c-0.171-0.725-0.256-1.577-0.256-2.559c0-1.023,0.085-1.876,0.256-2.559h-1.919
			c-0.171-0.725-0.256-1.578-0.256-2.56c0-1.023,0.085-1.876,0.256-2.559h1.919c-0.171-0.725-0.256-1.577-0.256-2.559
			c0-1.023,0.085-1.876,0.256-2.559c-0.171-0.725-0.256-1.577-0.256-2.56c0-1.023,0.085-1.876,0.256-2.559
			c-0.171-0.725-0.256-1.577-0.256-2.559c0-1.023,0.085-1.876,0.256-2.559h5.118c0.17,0.683,0.256,1.535,0.256,2.559
			c0,0.981-0.086,1.834-0.256,2.559C-1010.016,563.432-1009.93,564.284-1009.93,565.308z"/>
		<path class="st6" d="M-958.754,565.308c0,0.982-0.086,1.835-0.256,2.56h-5.118c-0.171-0.725-0.256-1.577-0.256-2.56
			c0-1.023,0.085-1.876,0.256-2.559h-4.478c0.17,0.683,0.256,1.535,0.256,2.559c0,0.982-0.086,1.835-0.256,2.56h-1.919
			c0.17,0.683,0.256,1.535,0.256,2.559c0,0.981-0.086,1.834-0.256,2.559c0.17,0.683,0.256,1.535,0.256,2.559
			c0,0.981-0.086,1.835-0.256,2.56h3.838c0.17,0.683,0.256,1.535,0.256,2.559c0,0.981-0.086,1.834-0.256,2.559h-12.794
			c-0.171-0.725-0.256-1.577-0.256-2.559c0-1.023,0.085-1.876,0.256-2.559h3.838c-0.171-0.725-0.256-1.578-0.256-2.56
			c0-1.023,0.085-1.876,0.256-2.559c-0.171-0.725-0.256-1.577-0.256-2.559c0-1.023,0.085-1.876,0.256-2.559
			c-0.171-0.725-0.256-1.577-0.256-2.56c0-1.023,0.085-1.876,0.256-2.559h-3.838c-0.171-0.725-0.256-1.577-0.256-2.559
			c0-1.023,0.085-1.876,0.256-2.559h6.397c0.17,0.683,0.256,1.535,0.256,2.559c0,0.981-0.086,1.834-0.256,2.559h2.559
			c-0.171-0.725-0.256-1.577-0.256-2.559c0-1.023,0.085-1.876,0.256-2.559h9.596c0.17,0.683,0.256,1.535,0.256,2.559
			c0,0.981-0.086,1.834-0.256,2.559h1.919C-958.84,563.432-958.754,564.284-958.754,565.308z"/>
		<path class="st6" d="M-933.422,567.867c0.17,0.683,0.256,1.535,0.256,2.559c0,0.981-0.086,1.834-0.256,2.559h-13.434
			c0.17,0.683,0.256,1.535,0.256,2.559c0,0.981-0.086,1.835-0.256,2.56h10.875c0.17,0.683,0.256,1.535,0.256,2.559
			c0,0.981-0.086,1.834-0.256,2.559h-12.794c-0.171-0.725-0.256-1.577-0.256-2.559c0-1.023,0.085-1.876,0.256-2.559h-3.198
			c-0.171-0.725-0.256-1.578-0.256-2.56c0-1.023,0.085-1.876,0.256-2.559h-1.919c-0.171-0.725-0.256-1.577-0.256-2.559
			c0-1.023,0.085-1.876,0.256-2.559h1.919c-0.171-0.725-0.256-1.577-0.256-2.56c0-1.023,0.085-1.876,0.256-2.559h3.198
			c-0.171-0.725-0.256-1.577-0.256-2.559c0-1.023,0.085-1.876,0.256-2.559h12.794c0.17,0.683,0.256,1.535,0.256,2.559
			c0,0.981-0.086,1.834-0.256,2.559h2.559c0.17,0.683,0.256,1.535,0.256,2.559C-933.167,566.29-933.252,567.143-933.422,567.867z
			 M-938.796,565.308c0-1.023,0.085-1.876,0.256-2.559h-8.316c0.17,0.683,0.256,1.535,0.256,2.559c0,0.982-0.086,1.835-0.256,2.56
			h8.316C-938.711,567.143-938.796,566.29-938.796,565.308z"/>
		<path class="st6" d="M-907.579,580.661c0,0.981-0.086,1.834-0.256,2.559h-5.117c-0.171-0.725-0.256-1.577-0.256-2.559
			c0-1.023,0.085-1.876,0.256-2.559h-2.559c-0.171-0.725-0.256-1.578-0.256-2.56c0-1.023,0.085-1.876,0.256-2.559h-7.677
			c0.17,0.683,0.256,1.535,0.256,2.559c0,0.981-0.086,1.835-0.256,2.56h7.677c0.17,0.683,0.256,1.535,0.256,2.559
			c0,0.981-0.086,1.834-0.256,2.559h-10.235c-0.171-0.725-0.256-1.577-0.256-2.559c0-1.023,0.085-1.876,0.256-2.559h-2.559
			c-0.171-0.725-0.256-1.578-0.256-2.56c0-1.023,0.085-1.876,0.256-2.559h2.559c-0.171-0.725-0.256-1.577-0.256-2.559
			c0-1.023,0.085-1.876,0.256-2.559h10.235c-0.171-0.725-0.256-1.577-0.256-2.56c0-1.023,0.085-1.876,0.256-2.559h-8.956
			c-0.171-0.725-0.256-1.577-0.256-2.559c0-1.023,0.085-1.876,0.256-2.559h11.515c0.17,0.683,0.256,1.535,0.256,2.559
			c0,0.981-0.086,1.834-0.256,2.559h2.559c0.17,0.683,0.256,1.535,0.256,2.559c0,0.982-0.086,1.835-0.256,2.56
			c0.17,0.683,0.256,1.535,0.256,2.559c0,0.981-0.086,1.834-0.256,2.559c0.17,0.683,0.256,1.535,0.256,2.559
			c0,0.981-0.086,1.835-0.256,2.56h2.559C-907.665,578.785-907.579,579.638-907.579,580.661z"/>
		<path class="st6" d="M-890.563,562.749h-6.396c0.17,0.683,0.256,1.535,0.256,2.559c0,0.982-0.086,1.835-0.256,2.56h-1.919
			c0.17,0.683,0.256,1.535,0.256,2.559c0,0.981-0.086,1.834-0.256,2.559h1.919c0.17,0.683,0.256,1.535,0.256,2.559
			c0,0.981-0.086,1.835-0.256,2.56h6.396c0.17,0.683,0.256,1.535,0.256,2.559c0,0.981-0.086,1.834-0.256,2.559h-7.036
			c-0.171-0.725-0.256-1.577-0.256-2.559c0-1.023,0.085-1.876,0.256-2.559h-3.199c-0.171-0.725-0.256-1.578-0.256-2.56
			c0-1.023,0.085-1.876,0.256-2.559h-1.919c-0.171-0.725-0.256-1.577-0.256-2.559c0-1.023,0.085-1.876,0.256-2.559h1.919
			c-0.171-0.725-0.256-1.577-0.256-2.56c0-1.023,0.085-1.876,0.256-2.559h3.199c-0.171-0.725-0.256-1.577-0.256-2.559
			c0-1.023,0.085-1.876,0.256-2.559h7.036c0.17,0.683,0.256,1.535,0.256,2.559C-890.308,561.172-890.394,562.024-890.563,562.749z
			 M-881.991,555.073c0,0.981-0.086,1.834-0.256,2.559c0.17,0.683,0.256,1.535,0.256,2.559c0,0.981-0.086,1.834-0.256,2.559
			c0.17,0.683,0.256,1.535,0.256,2.559c0,0.982-0.086,1.835-0.256,2.56c0.17,0.683,0.256,1.535,0.256,2.559
			c0,0.981-0.086,1.834-0.256,2.559c0.17,0.683,0.256,1.535,0.256,2.559c0,0.981-0.086,1.835-0.256,2.56
			c0.17,0.683,0.256,1.535,0.256,2.559c0,0.981-0.086,1.834-0.256,2.559h-5.117c-0.171-0.725-0.256-1.577-0.256-2.559
			c0-1.023,0.085-1.876,0.256-2.559h-1.92c-0.171-0.725-0.256-1.578-0.256-2.56c0-1.023,0.085-1.876,0.256-2.559h1.92
			c-0.171-0.725-0.256-1.577-0.256-2.559c0-1.023,0.085-1.876,0.256-2.559h-1.92c-0.171-0.725-0.256-1.577-0.256-2.56
			c0-1.023,0.085-1.876,0.256-2.559h1.92c-0.171-0.725-0.256-1.577-0.256-2.559c0-1.023,0.085-1.876,0.256-2.559
			c-0.171-0.725-0.256-1.577-0.256-2.559c0-1.024,0.085-1.877,0.256-2.56c-0.171-0.725-0.256-1.577-0.256-2.559
			c0-1.023,0.085-1.876,0.256-2.559h5.117c0.17,0.683,0.256,1.535,0.256,2.559c0,0.981-0.086,1.834-0.256,2.559
			C-882.077,553.196-881.991,554.049-881.991,555.073z"/>
		<path class="st6" d="M-856.659,562.749h-1.919c0.17,0.683,0.256,1.535,0.256,2.559c0,0.982-0.086,1.835-0.256,2.56h-1.919
			c0.17,0.683,0.256,1.535,0.256,2.559c0,0.981-0.086,1.834-0.256,2.559h-1.279c0.17,0.683,0.256,1.535,0.256,2.559
			c0,0.981-0.086,1.835-0.256,2.56h-1.92c0.17,0.683,0.256,1.535,0.256,2.559c0,0.981-0.086,1.834-0.256,2.559h-1.279
			c0.17,0.682,0.256,1.535,0.256,2.559c0,0.98-0.086,1.833-0.256,2.559h-2.559c0.17,0.682,0.256,1.536,0.256,2.56
			c0,0.98-0.086,1.833-0.256,2.559h-7.677c-0.171-0.726-0.256-1.578-0.256-2.559c0-1.023,0.085-1.878,0.256-2.56h5.118
			c-0.171-0.726-0.256-1.578-0.256-2.559c0-1.023,0.085-1.877,0.256-2.559c-0.171-0.725-0.256-1.577-0.256-2.559
			c0-1.023,0.085-1.876,0.256-2.559h-2.559c-0.171-0.725-0.256-1.578-0.256-2.56c0-1.023,0.085-1.876,0.256-2.559h-1.279
			c-0.172-0.725-0.257-1.577-0.257-2.559c0-1.023,0.085-1.876,0.257-2.559h-1.92c-0.171-0.725-0.256-1.577-0.256-2.56
			c0-1.023,0.085-1.876,0.256-2.559h-1.919c-0.171-0.725-0.256-1.577-0.256-2.559c0-1.023,0.085-1.876,0.256-2.559h5.118
			c0.17,0.683,0.256,1.535,0.256,2.559c0,0.981-0.086,1.834-0.256,2.559h1.919c0.17,0.683,0.256,1.535,0.256,2.559
			c0,0.982-0.086,1.835-0.256,2.56h1.919c0.17,0.683,0.256,1.535,0.256,2.559c0,0.981-0.086,1.834-0.256,2.559
			c0.17,0.683,0.256,1.535,0.256,2.559c0,0.981-0.086,1.835-0.256,2.56h1.919c-0.171-0.725-0.256-1.578-0.256-2.56
			c0-1.023,0.085-1.876,0.256-2.559h1.279c-0.171-0.725-0.256-1.577-0.256-2.559c0-1.023,0.085-1.876,0.256-2.559h1.919
			c-0.171-0.725-0.256-1.577-0.256-2.56c0-1.023,0.085-1.876,0.256-2.559h1.92c-0.171-0.725-0.256-1.577-0.256-2.559
			c0-1.023,0.085-1.876,0.256-2.559h5.117c0.17,0.683,0.256,1.535,0.256,2.559C-856.403,561.172-856.489,562.024-856.659,562.749z"
			/>
		<path class="st6" d="M-808.042,578.103c0.17,0.683,0.256,1.535,0.256,2.559c0,0.981-0.086,1.834-0.256,2.559h-10.235
			c-0.171-0.725-0.256-1.577-0.256-2.559c0-1.023,0.085-1.876,0.256-2.559h-2.559c-0.171-0.725-0.256-1.578-0.256-2.56
			c0-1.023,0.085-1.876,0.256-2.559c-0.171-0.725-0.256-1.577-0.256-2.559c0-1.023,0.085-1.876,0.256-2.559
			c-0.171-0.725-0.256-1.577-0.256-2.56c0-1.023,0.085-1.876,0.256-2.559h-5.118c-0.171-0.725-0.256-1.577-0.256-2.559
			c0-1.023,0.085-1.876,0.256-2.559h5.118c-0.171-0.725-0.256-1.577-0.256-2.559c0-1.024,0.085-1.877,0.256-2.56
			c-0.171-0.725-0.256-1.577-0.256-2.559c0-1.023,0.085-1.876,0.256-2.559h5.117c0.17,0.683,0.256,1.535,0.256,2.559
			c0,0.981-0.086,1.834-0.256,2.559c0.17,0.683,0.256,1.535,0.256,2.56c0,0.981-0.086,1.834-0.256,2.559h7.677
			c0.17,0.683,0.256,1.535,0.256,2.559c0,0.981-0.086,1.834-0.256,2.559h-7.677c0.17,0.683,0.256,1.535,0.256,2.559
			c0,0.982-0.086,1.835-0.256,2.56c0.17,0.683,0.256,1.535,0.256,2.559c0,0.981-0.086,1.834-0.256,2.559
			c0.17,0.683,0.256,1.535,0.256,2.559c0,0.981-0.086,1.835-0.256,2.56H-808.042z"/>
		<path class="st6" d="M-779.896,572.984h-1.919c0.17,0.683,0.256,1.535,0.256,2.559c0,0.981-0.086,1.835-0.256,2.56h-3.198
			c0.17,0.683,0.256,1.535,0.256,2.559c0,0.981-0.086,1.834-0.256,2.559h-10.235c-0.171-0.725-0.256-1.577-0.256-2.559
			c0-1.023,0.085-1.876,0.256-2.559h-3.199c-0.171-0.725-0.256-1.578-0.256-2.56c0-1.023,0.085-1.876,0.256-2.559h-1.919
			c-0.171-0.725-0.256-1.577-0.256-2.559c0-1.023,0.085-1.876,0.256-2.559h1.919c-0.171-0.725-0.256-1.577-0.256-2.56
			c0-1.023,0.085-1.876,0.256-2.559h3.199c-0.171-0.725-0.256-1.577-0.256-2.559c0-1.023,0.085-1.876,0.256-2.559h10.235
			c0.17,0.683,0.256,1.535,0.256,2.559c0,0.981-0.086,1.834-0.256,2.559h3.198c0.17,0.683,0.256,1.535,0.256,2.559
			c0,0.982-0.086,1.835-0.256,2.56h1.919c0.17,0.683,0.256,1.535,0.256,2.559C-779.641,571.407-779.727,572.26-779.896,572.984z
			 M-785.014,572.984c-0.171-0.725-0.256-1.577-0.256-2.559c0-1.023,0.085-1.876,0.256-2.559h-1.92
			c-0.171-0.725-0.256-1.577-0.256-2.56c0-1.023,0.085-1.876,0.256-2.559h-6.396c0.17,0.683,0.256,1.535,0.256,2.559
			c0,0.982-0.086,1.835-0.256,2.56h-1.919c0.17,0.683,0.256,1.535,0.256,2.559c0,0.981-0.086,1.834-0.256,2.559h1.919
			c0.17,0.683,0.256,1.535,0.256,2.559c0,0.981-0.086,1.835-0.256,2.56h6.396c-0.171-0.725-0.256-1.578-0.256-2.56
			c0-1.023,0.085-1.876,0.256-2.559H-785.014z"/>
		<path class="st6" d="M-728.721,572.984h-2.559c0.17,0.683,0.256,1.535,0.256,2.559c0,0.981-0.086,1.835-0.256,2.56h-2.559
			c0.17,0.683,0.256,1.535,0.256,2.559c0,0.981-0.086,1.834-0.256,2.559h-10.235c0.17,0.682,0.256,1.535,0.256,2.559
			c0,0.98-0.086,1.833-0.256,2.559c0.17,0.682,0.256,1.536,0.256,2.56c0,0.98-0.086,1.833-0.256,2.559h-5.118
			c-0.171-0.726-0.256-1.578-0.256-2.559c0-1.023,0.085-1.878,0.256-2.56c-0.171-0.726-0.256-1.578-0.256-2.559
			c0-1.023,0.085-1.877,0.256-2.559c-0.171-0.725-0.256-1.577-0.256-2.559c0-1.023,0.085-1.876,0.256-2.559
			c-0.171-0.725-0.256-1.578-0.256-2.56c0-1.023,0.085-1.876,0.256-2.559c-0.171-0.725-0.256-1.577-0.256-2.559
			c0-1.023,0.085-1.876,0.256-2.559c-0.171-0.725-0.256-1.577-0.256-2.56c0-1.023,0.085-1.876,0.256-2.559
			c-0.171-0.725-0.256-1.577-0.256-2.559c0-1.023,0.085-1.876,0.256-2.559h5.118c0.17,0.683,0.256,1.535,0.256,2.559
			c0,0.981-0.086,1.834-0.256,2.559h2.559c0.17,0.683,0.256,1.535,0.256,2.559c0,0.982-0.086,1.835-0.256,2.56h-2.559
			c0.17,0.683,0.256,1.535,0.256,2.559c0,0.981-0.086,1.834-0.256,2.559c0.17,0.683,0.256,1.535,0.256,2.559
			c0,0.981-0.086,1.835-0.256,2.56h7.676c-0.171-0.725-0.256-1.578-0.256-2.56c0-1.023,0.085-1.876,0.256-2.559h2.56
			c-0.171-0.725-0.256-1.577-0.256-2.559c0-1.023,0.085-1.876,0.256-2.559h-2.56c-0.171-0.725-0.256-1.577-0.256-2.56
			c0-1.023,0.085-1.876,0.256-2.559h-5.117c-0.171-0.725-0.256-1.577-0.256-2.559c0-1.023,0.085-1.876,0.256-2.559h7.677
			c0.17,0.683,0.256,1.535,0.256,2.559c0,0.981-0.086,1.834-0.256,2.559h2.559c0.17,0.683,0.256,1.535,0.256,2.559
			c0,0.982-0.086,1.835-0.256,2.56h2.559c0.17,0.683,0.256,1.535,0.256,2.559C-728.465,571.407-728.551,572.26-728.721,572.984z"/>
		<path class="st6" d="M-705.436,580.661c0,0.981-0.086,1.834-0.256,2.559h-15.354c-0.171-0.725-0.256-1.577-0.256-2.559
			c0-1.023,0.085-1.876,0.256-2.559h5.118c-0.171-0.725-0.256-1.578-0.256-2.56c0-1.023,0.085-1.876,0.256-2.559
			c-0.171-0.725-0.256-1.577-0.256-2.559c0-1.023,0.085-1.876,0.256-2.559c-0.171-0.725-0.256-1.577-0.256-2.56
			c0-1.023,0.085-1.876,0.256-2.559c-0.171-0.725-0.256-1.577-0.256-2.559c0-1.023,0.085-1.876,0.256-2.559
			c-0.171-0.725-0.256-1.577-0.256-2.559c0-1.024,0.085-1.877,0.256-2.56h-3.838c-0.171-0.725-0.256-1.577-0.256-2.559
			c0-1.023,0.085-1.876,0.256-2.559h8.955c0.17,0.683,0.256,1.535,0.256,2.559c0,0.981-0.086,1.834-0.256,2.559
			c0.17,0.683,0.256,1.535,0.256,2.56c0,0.981-0.086,1.834-0.256,2.559c0.17,0.683,0.256,1.535,0.256,2.559
			c0,0.981-0.086,1.834-0.256,2.559c0.17,0.683,0.256,1.535,0.256,2.559c0,0.982-0.086,1.835-0.256,2.56
			c0.17,0.683,0.256,1.535,0.256,2.559c0,0.981-0.086,1.834-0.256,2.559c0.17,0.683,0.256,1.535,0.256,2.559
			c0,0.981-0.086,1.835-0.256,2.56h5.118C-705.521,578.785-705.436,579.638-705.436,580.661z"/>
		<path class="st6" d="M-677.289,580.661c0,0.981-0.086,1.834-0.256,2.559h-5.117c-0.171-0.725-0.256-1.577-0.256-2.559
			c0-1.023,0.085-1.876,0.256-2.559h-2.56c-0.171-0.725-0.256-1.578-0.256-2.56c0-1.023,0.085-1.876,0.256-2.559h-7.676
			c0.17,0.683,0.256,1.535,0.256,2.559c0,0.981-0.086,1.835-0.256,2.56h7.676c0.17,0.683,0.256,1.535,0.256,2.559
			c0,0.981-0.086,1.834-0.256,2.559h-10.235c-0.171-0.725-0.256-1.577-0.256-2.559c0-1.023,0.085-1.876,0.256-2.559h-2.559
			c-0.171-0.725-0.256-1.578-0.256-2.56c0-1.023,0.085-1.876,0.256-2.559h2.559c-0.171-0.725-0.256-1.577-0.256-2.559
			c0-1.023,0.085-1.876,0.256-2.559h10.235c-0.171-0.725-0.256-1.577-0.256-2.56c0-1.023,0.085-1.876,0.256-2.559h-8.955
			c-0.171-0.725-0.256-1.577-0.256-2.559c0-1.023,0.085-1.876,0.256-2.559h11.515c0.17,0.683,0.256,1.535,0.256,2.559
			c0,0.981-0.086,1.834-0.256,2.559h2.559c0.17,0.683,0.256,1.535,0.256,2.559c0,0.982-0.086,1.835-0.256,2.56
			c0.17,0.683,0.256,1.535,0.256,2.559c0,0.981-0.086,1.834-0.256,2.559c0.17,0.683,0.256,1.535,0.256,2.559
			c0,0.981-0.086,1.835-0.256,2.56h2.559C-677.375,578.785-677.289,579.638-677.289,580.661z"/>
		<path class="st6" d="M-651.958,562.749h-1.919c0.17,0.683,0.256,1.535,0.256,2.559c0,0.982-0.086,1.835-0.256,2.56h-1.919
			c0.17,0.683,0.256,1.535,0.256,2.559c0,0.981-0.086,1.834-0.256,2.559h-1.279c0.17,0.683,0.256,1.535,0.256,2.559
			c0,0.981-0.086,1.835-0.256,2.56h-1.92c0.17,0.683,0.256,1.535,0.256,2.559c0,0.981-0.086,1.834-0.256,2.559h-1.279
			c0.17,0.682,0.256,1.535,0.256,2.559c0,0.98-0.086,1.833-0.256,2.559h-2.559c0.17,0.682,0.256,1.536,0.256,2.56
			c0,0.98-0.086,1.833-0.256,2.559h-7.677c-0.171-0.726-0.256-1.578-0.256-2.559c0-1.023,0.085-1.878,0.256-2.56h5.118
			c-0.171-0.726-0.256-1.578-0.256-2.559c0-1.023,0.085-1.877,0.256-2.559c-0.171-0.725-0.256-1.577-0.256-2.559
			c0-1.023,0.085-1.876,0.256-2.559h-2.559c-0.171-0.725-0.256-1.578-0.256-2.56c0-1.023,0.085-1.876,0.256-2.559h-1.279
			c-0.172-0.725-0.257-1.577-0.257-2.559c0-1.023,0.085-1.876,0.257-2.559h-1.92c-0.171-0.725-0.256-1.577-0.256-2.56
			c0-1.023,0.085-1.876,0.256-2.559h-1.919c-0.171-0.725-0.256-1.577-0.256-2.559c0-1.023,0.085-1.876,0.256-2.559h5.118
			c0.17,0.683,0.256,1.535,0.256,2.559c0,0.981-0.086,1.834-0.256,2.559h1.919c0.17,0.683,0.256,1.535,0.256,2.559
			c0,0.982-0.086,1.835-0.256,2.56h1.919c0.17,0.683,0.256,1.535,0.256,2.559c0,0.981-0.086,1.834-0.256,2.559
			c0.17,0.683,0.256,1.535,0.256,2.559c0,0.981-0.086,1.835-0.256,2.56h1.919c-0.171-0.725-0.256-1.578-0.256-2.56
			c0-1.023,0.085-1.876,0.256-2.559h1.279c-0.171-0.725-0.256-1.577-0.256-2.559c0-1.023,0.085-1.876,0.256-2.559h1.919
			c-0.171-0.725-0.256-1.577-0.256-2.56c0-1.023,0.085-1.876,0.256-2.559h1.92c-0.171-0.725-0.256-1.577-0.256-2.559
			c0-1.023,0.085-1.876,0.256-2.559h5.117c0.17,0.683,0.256,1.535,0.256,2.559C-651.702,561.172-651.788,562.024-651.958,562.749z"
			/>
		<path class="st6" d="M-627.649,557.632c0.17,0.683,0.256,1.535,0.256,2.559c0,0.981-0.086,1.834-0.256,2.559h-3.198
			c0.17,0.683,0.256,1.535,0.256,2.559c0,0.982-0.086,1.835-0.256,2.56h-3.199c0.17,0.683,0.256,1.535,0.256,2.559
			c0,0.981-0.086,1.834-0.256,2.559h-5.117c-0.171-0.725-0.256-1.577-0.256-2.559c0-1.023,0.085-1.876,0.256-2.559h3.198
			c-0.171-0.725-0.256-1.577-0.256-2.56c0-1.023,0.085-1.876,0.256-2.559h3.198c-0.171-0.725-0.256-1.577-0.256-2.559
			c0-1.023,0.085-1.876,0.256-2.559c-0.171-0.725-0.256-1.577-0.256-2.559c0-1.024,0.085-1.877,0.256-2.56h-8.955
			c0.17,0.683,0.256,1.535,0.256,2.56c0,0.981-0.086,1.834-0.256,2.559h-5.118c-0.171-0.725-0.256-1.577-0.256-2.559
			c0-1.024,0.085-1.877,0.256-2.56h3.839c-0.171-0.725-0.256-1.577-0.256-2.559c0-1.023,0.085-1.876,0.256-2.559h12.794
			c0.17,0.683,0.256,1.535,0.256,2.559c0,0.981-0.086,1.834-0.256,2.559h2.559c0.17,0.683,0.256,1.535,0.256,2.56
			C-627.394,556.055-627.479,556.907-627.649,557.632z M-634.047,578.103c0.17,0.683,0.256,1.535,0.256,2.559
			c0,0.981-0.086,1.834-0.256,2.559h-5.117c-0.171-0.725-0.256-1.577-0.256-2.559c0-1.023,0.085-1.876,0.256-2.559H-634.047z"/>
	</g>
	<g>
		<rect x="-1079.16" y="658.221" class="st6" width="344.72" height="81.507"/>
		<g>
			<path d="M-945.96,705.043c0,0.981-0.086,1.834-0.256,2.559c0.17,0.683,0.256,1.535,0.256,2.559c0,0.981-0.086,1.835-0.256,2.56
				h-2.559c0.17,0.683,0.256,1.535,0.256,2.559c0,0.981-0.086,1.834-0.256,2.559h-15.353c-0.171-0.725-0.256-1.577-0.256-2.559
				c0-1.023,0.085-1.876,0.256-2.559h-2.559c-0.171-0.725-0.256-1.578-0.256-2.56c0-1.023,0.085-1.876,0.256-2.559h5.118
				c0.17,0.683,0.256,1.535,0.256,2.559c0,0.981-0.086,1.835-0.256,2.56h10.235c-0.171-0.725-0.256-1.578-0.256-2.56
				c0-1.023,0.085-1.876,0.256-2.559c-0.171-0.725-0.256-1.577-0.256-2.559c0-1.023,0.085-1.876,0.256-2.559h-12.794
				c-0.171-0.725-0.256-1.577-0.256-2.56c0-1.023,0.085-1.876,0.256-2.559h-2.559c-0.171-0.725-0.256-1.577-0.256-2.559
				c0-1.023,0.085-1.876,0.256-2.559c-0.171-0.725-0.256-1.577-0.256-2.559c0-1.024,0.085-1.877,0.256-2.56h2.559
				c-0.171-0.725-0.256-1.577-0.256-2.559c0-1.023,0.085-1.876,0.256-2.559h15.353c0.17,0.683,0.256,1.535,0.256,2.559
				c0,0.981-0.086,1.834-0.256,2.559h2.559c0.17,0.683,0.256,1.535,0.256,2.56c0,0.981-0.086,1.834-0.256,2.559h-5.118
				c-0.171-0.725-0.256-1.577-0.256-2.559c0-1.024,0.085-1.877,0.256-2.56h-10.235c0.17,0.683,0.256,1.535,0.256,2.56
				c0,0.981-0.086,1.834-0.256,2.559c0.17,0.683,0.256,1.535,0.256,2.559c0,0.981-0.086,1.834-0.256,2.559h12.794
				c0.17,0.683,0.256,1.535,0.256,2.559c0,0.982-0.086,1.835-0.256,2.56h2.559C-946.046,703.167-945.96,704.02-945.96,705.043z"/>
			<path d="M-920.628,687.131h-7.676c0.17,0.683,0.256,1.535,0.256,2.56c0,0.981-0.086,1.834-0.256,2.559
				c0.17,0.683,0.256,1.535,0.256,2.559c0,0.981-0.086,1.834-0.256,2.559c0.17,0.683,0.256,1.535,0.256,2.559
				c0,0.982-0.086,1.835-0.256,2.56c0.17,0.683,0.256,1.535,0.256,2.559c0,0.981-0.086,1.834-0.256,2.559
				c0.17,0.683,0.256,1.535,0.256,2.559c0,0.981-0.086,1.835-0.256,2.56c0.17,0.683,0.256,1.535,0.256,2.559
				c0,0.981-0.086,1.834-0.256,2.559h-5.118c-0.171-0.725-0.256-1.577-0.256-2.559c0-1.023,0.085-1.876,0.256-2.559
				c-0.171-0.725-0.256-1.578-0.256-2.56c0-1.023,0.085-1.876,0.256-2.559c-0.171-0.725-0.256-1.577-0.256-2.559
				c0-1.023,0.085-1.876,0.256-2.559c-0.171-0.725-0.256-1.577-0.256-2.56c0-1.023,0.085-1.876,0.256-2.559
				c-0.171-0.725-0.256-1.577-0.256-2.559c0-1.023,0.085-1.876,0.256-2.559c-0.171-0.725-0.256-1.577-0.256-2.559
				c0-1.024,0.085-1.877,0.256-2.56h-7.677c-0.171-0.725-0.256-1.577-0.256-2.559c0-1.023,0.085-1.876,0.256-2.559h20.471
				c0.17,0.683,0.256,1.535,0.256,2.559C-920.373,685.554-920.458,686.406-920.628,687.131z"/>
			<path d="M-895.041,712.72c0.17,0.683,0.256,1.535,0.256,2.559c0,0.981-0.086,1.834-0.256,2.559h-5.117
				c-0.171-0.725-0.256-1.577-0.256-2.559c0-1.023,0.085-1.876,0.256-2.559c-0.171-0.725-0.256-1.578-0.256-2.56
				c0-1.023,0.085-1.876,0.256-2.559h-10.235c0.17,0.683,0.256,1.535,0.256,2.559c0,0.981-0.086,1.835-0.256,2.56
				c0.17,0.683,0.256,1.535,0.256,2.559c0,0.981-0.086,1.834-0.256,2.559h-5.118c-0.171-0.725-0.256-1.577-0.256-2.559
				c0-1.023,0.085-1.876,0.256-2.559c-0.171-0.725-0.256-1.578-0.256-2.56c0-1.023,0.085-1.876,0.256-2.559h1.92
				c-0.172-0.725-0.256-1.577-0.256-2.559c0-1.023,0.084-1.876,0.256-2.559c-0.172-0.725-0.256-1.577-0.256-2.56
				c0-1.023,0.084-1.876,0.256-2.559h1.279c-0.172-0.725-0.257-1.577-0.257-2.559c0-1.023,0.085-1.876,0.257-2.559h1.919
				c-0.171-0.725-0.256-1.577-0.256-2.559c0-1.024,0.085-1.877,0.256-2.56h1.279c-0.171-0.725-0.256-1.577-0.256-2.559
				c0-1.023,0.085-1.876,0.256-2.559h7.676c0.17,0.683,0.256,1.535,0.256,2.559c0,0.981-0.086,1.834-0.256,2.559h1.28
				c0.17,0.683,0.256,1.535,0.256,2.56c0,0.981-0.086,1.834-0.256,2.559h1.919c0.17,0.683,0.256,1.535,0.256,2.559
				c0,0.981-0.086,1.834-0.256,2.559h1.279c0.17,0.683,0.256,1.535,0.256,2.559c0,0.982-0.086,1.835-0.256,2.56
				c0.17,0.683,0.256,1.535,0.256,2.559c0,0.981-0.086,1.834-0.256,2.559h1.919c0.17,0.683,0.256,1.535,0.256,2.559
				C-894.785,711.142-894.871,711.995-895.041,712.72z M-902.334,699.925c0-1.023,0.085-1.876,0.256-2.559h-1.279
				c-0.171-0.725-0.256-1.577-0.256-2.559c0-1.023,0.085-1.876,0.256-2.559h-3.838c0.17,0.683,0.256,1.535,0.256,2.559
				c0,0.981-0.086,1.834-0.256,2.559h-1.279c0.17,0.683,0.256,1.535,0.256,2.559c0,0.982-0.086,1.835-0.256,2.56h6.396
				C-902.249,701.76-902.334,700.907-902.334,699.925z"/>
			<path d="M-869.453,712.72c0.17,0.683,0.256,1.535,0.256,2.559c0,0.981-0.086,1.834-0.256,2.559h-5.117
				c-0.171-0.725-0.256-1.577-0.256-2.559c0-1.023,0.085-1.876,0.256-2.559h-1.92c-0.171-0.725-0.256-1.578-0.256-2.56
				c0-1.023,0.085-1.876,0.256-2.559h-1.919c-0.171-0.725-0.256-1.577-0.256-2.559c0-1.023,0.085-1.876,0.256-2.559h-6.396
				c0.17,0.683,0.256,1.535,0.256,2.559c0,0.981-0.086,1.834-0.256,2.559c0.17,0.683,0.256,1.535,0.256,2.559
				c0,0.981-0.086,1.835-0.256,2.56c0.17,0.683,0.256,1.535,0.256,2.559c0,0.981-0.086,1.834-0.256,2.559h-5.118
				c-0.171-0.725-0.256-1.577-0.256-2.559c0-1.023,0.085-1.876,0.256-2.559c-0.171-0.725-0.256-1.578-0.256-2.56
				c0-1.023,0.085-1.876,0.256-2.559c-0.171-0.725-0.256-1.577-0.256-2.559c0-1.023,0.085-1.876,0.256-2.559
				c-0.171-0.725-0.256-1.577-0.256-2.56c0-1.023,0.085-1.876,0.256-2.559c-0.171-0.725-0.256-1.577-0.256-2.559
				c0-1.023,0.085-1.876,0.256-2.559c-0.171-0.725-0.256-1.577-0.256-2.559c0-1.024,0.085-1.877,0.256-2.56
				c-0.171-0.725-0.256-1.577-0.256-2.559c0-1.023,0.085-1.876,0.256-2.559h17.912c0.17,0.683,0.256,1.535,0.256,2.559
				c0,0.981-0.086,1.834-0.256,2.559h2.559c0.17,0.683,0.256,1.535,0.256,2.56c0,0.981-0.086,1.834-0.256,2.559h-1.279
				c0.17,0.683,0.256,1.535,0.256,2.559c0,0.981-0.086,1.834-0.256,2.559h-3.838c0.17,0.683,0.256,1.535,0.256,2.559
				c0,0.982-0.086,1.835-0.256,2.56h1.279c0.17,0.683,0.256,1.535,0.256,2.559c0,0.981-0.086,1.834-0.256,2.559h1.919
				c0.17,0.683,0.256,1.535,0.256,2.559c0,0.981-0.086,1.835-0.256,2.56H-869.453z M-876.106,694.808
				c0-1.023,0.085-1.876,0.256-2.559c-0.171-0.725-0.256-1.577-0.256-2.559c0-1.024,0.085-1.877,0.256-2.56h-8.955
				c0.17,0.683,0.256,1.535,0.256,2.56c0,0.981-0.086,1.834-0.256,2.559c0.17,0.683,0.256,1.535,0.256,2.559
				c0,0.981-0.086,1.834-0.256,2.559h8.955C-876.021,696.642-876.106,695.789-876.106,694.808z"/>
			<path d="M-843.865,687.131h-7.677c0.17,0.683,0.256,1.535,0.256,2.56c0,0.981-0.086,1.834-0.256,2.559
				c0.17,0.683,0.256,1.535,0.256,2.559c0,0.981-0.086,1.834-0.256,2.559c0.17,0.683,0.256,1.535,0.256,2.559
				c0,0.982-0.086,1.835-0.256,2.56c0.17,0.683,0.256,1.535,0.256,2.559c0,0.981-0.086,1.834-0.256,2.559
				c0.17,0.683,0.256,1.535,0.256,2.559c0,0.981-0.086,1.835-0.256,2.56c0.17,0.683,0.256,1.535,0.256,2.559
				c0,0.981-0.086,1.834-0.256,2.559h-5.117c-0.171-0.725-0.256-1.577-0.256-2.559c0-1.023,0.085-1.876,0.256-2.559
				c-0.171-0.725-0.256-1.578-0.256-2.56c0-1.023,0.085-1.876,0.256-2.559c-0.171-0.725-0.256-1.577-0.256-2.559
				c0-1.023,0.085-1.876,0.256-2.559c-0.171-0.725-0.256-1.577-0.256-2.56c0-1.023,0.085-1.876,0.256-2.559
				c-0.171-0.725-0.256-1.577-0.256-2.559c0-1.023,0.085-1.876,0.256-2.559c-0.171-0.725-0.256-1.577-0.256-2.559
				c0-1.024,0.085-1.877,0.256-2.56h-7.677c-0.171-0.725-0.256-1.577-0.256-2.559c0-1.023,0.085-1.876,0.256-2.559h20.471
				c0.17,0.683,0.256,1.535,0.256,2.559C-843.609,685.554-843.695,686.406-843.865,687.131z"/>
		</g>
	</g>
</g>
</svg>
