<svg id="Layer_1" data-name="Layer 1" xmlns="http://www.w3.org/2000/svg" viewBox="0 0 40 40"><defs><style>.cls-1{fill:#8b9371;}.cls-2{fill:#c2c2c0;}.cls-3{fill:#58684e;}.cls-4{fill:#868881;}</style></defs><rect class="cls-1" x="0.04" y="19.98" width="10.02" height="10.01"/><rect class="cls-2" x="9.98" y="19.98" width="10.02" height="10.01"/><rect class="cls-3" x="0.04" y="29.99" width="10.02" height="10.01"/><rect class="cls-4" x="9.98" y="29.99" width="10.02" height="10.01"/><rect class="cls-1" x="29.99" y="20.01" width="10.01" height="10.02" transform="translate(60.01 -9.97) rotate(90)"/><rect class="cls-4" x="29.99" y="29.95" width="10.01" height="10.02" transform="translate(69.95 -0.03) rotate(90)"/><rect class="cls-3" x="19.97" y="20.01" width="10.01" height="10.02" transform="translate(50 0.05) rotate(90)"/><rect class="cls-2" x="19.97" y="29.95" width="10.01" height="10.02" transform="translate(59.93 9.99) rotate(90)"/><rect class="cls-1" x="9.94" y="10.05" width="10.02" height="10.01" transform="translate(29.91 30.1) rotate(-180)"/><rect class="cls-2" y="10.05" width="10.02" height="10.01" transform="translate(10.02 30.1) rotate(-180)"/><rect class="cls-3" x="9.94" y="0.04" width="10.02" height="10.01" transform="translate(29.91 10.08) rotate(-180)"/><rect class="cls-4" y="0.04" width="10.02" height="10.01" transform="translate(10.02 10.08) rotate(-180)"/><rect class="cls-4" x="29.94" y="10.01" width="10.02" height="10.01" transform="translate(69.91 30.03) rotate(-180)"/><rect class="cls-2" x="20" y="10.01" width="10.02" height="10.01" transform="translate(50.02 30.03) rotate(-180)"/><rect class="cls-3" x="29.94" width="10.02" height="10.01" transform="translate(69.91 10.01) rotate(-180)"/><rect class="cls-4" x="20" width="10.02" height="10.01" transform="translate(50.02 10.01) rotate(-180)"/></svg>